<?xml version="1.0" standalone="no"?>
<!DOCTYPE svg PUBLIC "-//W3C//DTD SVG 20010904//EN"
 "http://www.w3.org/TR/2001/REC-SVG-20010904/DTD/svg10.dtd">
<svg version="1.0" xmlns="http://www.w3.org/2000/svg"
 width="920.000000pt" height="512.000000pt" viewBox="0 0 920.000000 512.000000"
 preserveAspectRatio="xMidYMid meet">

<g transform="translate(0.000000,512.000000) scale(0.100000,-0.100000)"
fill="#000000" stroke="none">
<path d="M4125 4313 c-27 -2 -99 -10 -160 -19 -385 -54 -733 -201 -1060 -447
-108 -82 -324 -301 -411 -417 -277 -371 -426 -787 -449 -1250 -9 -179 8 -423
39 -542 135 -528 648 -885 1191 -828 264 28 489 135 675 320 207 206 316 455
327 750 10 256 -57 481 -205 690 -160 225 -410 387 -685 444 -102 21 -268 30
-339 18 -32 -5 -58 -7 -58 -5 0 13 150 178 211 233 277 248 576 377 952 412
l127 11 0 319 0 318 -52 -2 c-29 -1 -75 -3 -103 -5z"/>
<path d="M6960 4309 c-500 -40 -989 -264 -1354 -618 -192 -187 -330 -373 -443
-596 -128 -253 -203 -508 -234 -794 -16 -151 -7 -487 16 -596 49 -235 139
-401 309 -571 222 -222 472 -326 781 -327 152 0 231 12 358 54 169 57 308 142
433 267 540 536 397 1448 -281 1787 -186 93 -382 134 -579 121 l-98 -7 48 61
c121 155 337 327 532 424 159 80 375 139 573 157 l129 12 0 319 0 319 -52 -3
c-29 -1 -91 -5 -138 -9z"/>
</g>
</svg>
